<svg xmlns="http://www.w3.org/2000/svg" width="26.133" height="26.133" viewBox="0 0 26.133 26.133">
  <g id="Group_180" data-name="Group 180" transform="translate(-43.84 -334.598)">
    <g id="Group_178" data-name="Group 178">
      <g id="Group_177" data-name="Group 177">
        <g id="Group_176" data-name="Group 176">
          <g id="Group_175" data-name="Group 175">
            <g id="Group_174" data-name="Group 174">
              <g id="Group_173" data-name="Group 173">
                <g id="Group_166" data-name="Group 166">
                  <g id="Group_165" data-name="Group 165">
                    <path id="Path_56" data-name="Path 56" d="M57.225,349.741c0,.082-.077.082-.11.082h0c-.111,0-.182,0-.182-.082l-1.675-1.565-5.6,4.733H63.914l-4.832-4.895Z" fill="#fff"/>
                  </g>
                </g>
                <g id="Group_168" data-name="Group 168">
                  <g id="Group_167" data-name="Group 167">
                    <path id="Path_57" data-name="Path 57" d="M49.619,342.866v9.6l5.293-4.565Z" fill="#fff"/>
                  </g>
                </g>
                <g id="Group_170" data-name="Group 170">
                  <g id="Group_169" data-name="Group 169">
                    <path id="Path_58" data-name="Path 58" d="M64.058,342.616H49.969l7.146,6.676Z" fill="#fff"/>
                  </g>
                </g>
                <g id="Group_172" data-name="Group 172">
                  <g id="Group_171" data-name="Group 171">
                    <path id="Path_59" data-name="Path 59" d="M59.4,347.7l5.023,5.182v-9.961Z" fill="#fff"/>
                  </g>
                </g>
              </g>
            </g>
          </g>
        </g>
      </g>
    </g>
    <g id="Group_179" data-name="Group 179">
      <path id="Path_60" data-name="Path 60" d="M56.906,360.731a13.066,13.066,0,1,1,13.067-13.066A13.08,13.08,0,0,1,56.906,360.731Zm0-25.133a12.066,12.066,0,1,0,12.067,12.067A12.081,12.081,0,0,0,56.906,335.6Z" fill="#fff"/>
    </g>
  </g>
</svg>
