<svg xmlns="http://www.w3.org/2000/svg" width="26.133" height="26.133" viewBox="0 0 26.133 26.133">
  <g id="Group_187" data-name="Group 187" transform="translate(-43.84 -362.838)">
    <g id="Group_185" data-name="Group 185">
      <g id="Group_184" data-name="Group 184">
        <g id="Group_183" data-name="Group 183">
          <g id="Group_182" data-name="Group 182">
            <g id="Group_181" data-name="Group 181">
              <path id="Path_61" data-name="Path 61" d="M62.113,370.549a5.877,5.877,0,0,0-10.178,5.881l3.707,6.418.022.014c.225.537.934,1.463,1.359,1.463.442,0,1.129-.926,1.36-1.463l.013-.014,3.717-6.418-.008-.01A5.859,5.859,0,0,0,62.113,370.549Zm-5.09,5.643a2.634,2.634,0,1,1,2.635-2.633A2.633,2.633,0,0,1,57.023,376.192Z" fill="#fff" fill-rule="evenodd"/>
            </g>
          </g>
        </g>
      </g>
    </g>
    <g id="Group_186" data-name="Group 186">
      <path id="Path_62" data-name="Path 62" d="M56.906,388.971A13.066,13.066,0,1,1,69.973,375.9,13.08,13.08,0,0,1,56.906,388.971Zm0-25.133A12.066,12.066,0,1,0,68.973,375.9,12.081,12.081,0,0,0,56.906,363.838Z" fill="#fff"/>
    </g>
  </g>
</svg>
