<svg xmlns="http://www.w3.org/2000/svg" width="26.133" height="26.133" viewBox="0 0 26.133 26.133">
  <g id="Group_164" data-name="Group 164" transform="translate(-43.84 -306.357)">
    <g id="Group_162" data-name="Group 162">
      <g id="Group_161" data-name="Group 161">
        <g id="Group_160" data-name="Group 160">
          <g id="Group_159" data-name="Group 159">
            <g id="Group_157" data-name="Group 157">
              <path id="Path_53" data-name="Path 53" d="M61.75,311.65H52.3a.807.807,0,0,0-.8.816v13.916a.807.807,0,0,0,.8.817H61.75a.806.806,0,0,0,.795-.817V312.466A.806.806,0,0,0,61.75,311.65Zm-4.727,15.2a.974.974,0,1,1,.946-.975A.961.961,0,0,1,57.023,326.853Zm4.723-2.871a.676.676,0,0,1-.662.683H52.969a.674.674,0,0,1-.664-.683V313.136a.673.673,0,0,1,.664-.681h8.115a.674.674,0,0,1,.662.681Z" fill="#fff"/>
            </g>
            <g id="Group_158" data-name="Group 158">
              <path id="Path_54" data-name="Path 54" d="M61.084,312.763H52.969a.369.369,0,0,0-.366.373v10.846a.371.371,0,0,0,.366.375h8.115a.369.369,0,0,0,.363-.375V313.136A.367.367,0,0,0,61.084,312.763Z" fill="#fff"/>
            </g>
          </g>
        </g>
      </g>
    </g>
    <g id="Group_163" data-name="Group 163">
      <path id="Path_55" data-name="Path 55" d="M56.906,332.49a13.066,13.066,0,1,1,13.067-13.067A13.081,13.081,0,0,1,56.906,332.49Zm0-25.133a12.066,12.066,0,1,0,12.067,12.066A12.081,12.081,0,0,0,56.906,307.357Z" fill="#fff"/>
    </g>
  </g>
</svg>
