<svg xmlns="http://www.w3.org/2000/svg" width="26.133" height="26.132" viewBox="0 0 26.133 26.132">
  <g id="Group_191" data-name="Group 191" transform="translate(-43.959 -275.688)">
    <g id="Group_189" data-name="Group 189">
      <g id="Group_188" data-name="Group 188">
        <path id="Path_63" data-name="Path 63" d="M64.426,291.143c-1.02-.88-4.877-1.9-4.961-2.608a1.965,1.965,0,0,1,.119-1.3,4.531,4.531,0,0,0,.943-2.342s.793.256.61-1.674c-.227-.225-.34-.2-.34-.2s0-2.31-.086-2.538a3.03,3.03,0,0,0-1.918-1.6,2.613,2.613,0,0,0-.731-.1H55.988a2.606,2.606,0,0,0-.73.1,3.049,3.049,0,0,0-1.92,1.6c-.084.228-.084,2.538-.084,2.538s-.113-.027-.34.2c-.186,1.93.609,1.674.609,1.674a4.547,4.547,0,0,0,.944,2.342,1.98,1.98,0,0,1,.121,1.3c-.086.708-3.942,1.728-4.963,2.608s-.822,4.4-.822,4.4H65.248S65.447,292.022,64.426,291.143Z" fill="#fff"/>
      </g>
    </g>
    <g id="Group_190" data-name="Group 190">
      <path id="Path_64" data-name="Path 64" d="M57.025,301.82a13.066,13.066,0,1,1,13.067-13.066A13.081,13.081,0,0,1,57.025,301.82Zm0-25.132a12.066,12.066,0,1,0,12.067,12.066A12.08,12.08,0,0,0,57.025,276.688Z" fill="#fff"/>
    </g>
  </g>
</svg>
